<?xml version="1.0" standalone="no"?><!DOCTYPE svg PUBLIC "-//W3C//DTD SVG 1.1//EN" "http://www.w3.org/Graphics/SVG/1.1/DTD/svg11.dtd"><svg t="1529746857656" class="icon" style="" viewBox="0 0 1024 1024" version="1.1" xmlns="http://www.w3.org/2000/svg" p-id="3335" xmlns:xlink="http://www.w3.org/1999/xlink" width="200" height="200"><defs><style type="text/css"></style></defs><path d="M695.466667 407.134815l-12.420741 0c-0.474074 0-0.853333-0.379259-0.853333-0.853333l0-62.672593c0-44.942222-17.161481-87.419259-48.355556-119.466667-25.031111-25.78963-56.983704-42.477037-92.16-48.45037-104.96-18.10963-200.533333 64-200.533333 170.477037l0 60.112593c0 0.474074-0.379259 0.853333-0.853333 0.853333l-10.998519 0c-48.071111 0-87.04 38.968889-87.04 87.04l0 269.558519c0 48.071111 38.968889 87.04 87.04 87.04l365.226667 0c48.071111 0 87.04-38.968889 87.04-87.04L781.558519 493.321481C781.653333 445.724444 743.063704 407.134815 695.466667 407.134815zM382.008889 343.608889c0-78.032593 51.674074-129.611852 129.611852-129.611852 38.21037 0 67.034074 11.946667 93.013333 38.684444 25.41037 26.168889 36.598519 54.234074 36.598519 90.927407l0 62.672593c0 0.474074-0.379259 0.853333-0.853333 0.853333L382.862222 407.134815c-0.474074 0-0.853333-0.379259-0.853333-0.853333L382.008889 343.608889zM740.882963 764.586667c0 30.340741-15.075556 45.416296-45.416296 45.416296L329.386667 810.002963c-25.505185 0-46.26963-20.66963-46.26963-46.26963L283.117037 500.527407c0-29.013333 23.514074-52.527407 52.527407-52.527407l358.874074 0c25.505185 0 46.26963 20.66963 46.26963 46.26963L740.788148 764.586667z" p-id="3336" fill="#8a8a8a"></path><path d="M510.388148 561.682963c-14.506667 0-18.962963 10.808889-18.962963 19.437037l0 83.057778c0 8.628148 8.533333 15.644444 18.962963 15.644444 10.42963 0 18.962963-7.016296 18.962963-15.644444l0-83.057778C529.351111 572.491852 522.714074 561.682963 510.388148 561.682963z" p-id="3337" fill="#8a8a8a"></path></svg>