<?xml version="1.0" standalone="no"?><!DOCTYPE svg PUBLIC "-//W3C//DTD SVG 1.1//EN" "http://www.w3.org/Graphics/SVG/1.1/DTD/svg11.dtd"><svg t="1529746831750" class="icon" style="" viewBox="0 0 1099 1024" version="1.1" xmlns="http://www.w3.org/2000/svg" p-id="2586" xmlns:xlink="http://www.w3.org/1999/xlink" width="214.6484375" height="200"><defs><style type="text/css"></style></defs><path d="M800.256 712.192c0 87.552-100.352 132.096-297.984 132.096S204.8 799.744 204.8 712.192c0-62.464 103.424-103.424 206.336-117.248l0-12.8c-61.952-43.008-91.648-118.784-91.648-229.888 0-108.032 67.584-172.032 180.224-172.032l6.144 0c113.152 0 180.224 64.512 180.224 172.032 0 111.616-29.696 187.392-91.136 230.4l-0.512 12.8C697.344 608.768 800.256 649.728 800.256 712.192zM565.76 620.544l-1.024-44.032c19.456-14.848 49.664-47.104 68.608-91.136 20.48-48.128 20.992-87.552 20.992-130.56 0-90.112-59.904-143.36-146.432-143.36l-5.632 0c-97.792 0-150.528 56.32-150.528 138.752 0 40.96 3.584 85.504 18.432 128 16.384 46.08 43.52 75.264 68.096 92.16l2.048 48.128c-78.848 10.752-199.68 45.056-199.68 98.816 0 67.072 100.352 96.256 262.144 96.256 165.376 0 264.704-34.816 264.704-101.888C766.976 663.552 644.608 630.784 565.76 620.544z" p-id="2587" fill="#8a8a8a"></path></svg>