<?xml version="1.0" encoding="utf-8"?>
<!-- Generator: Adobe Illustrator 15.0.0, SVG Export Plug-In . SVG Version: 6.00 Build 0)  -->
<!DOCTYPE svg PUBLIC "-//W3C//DTD SVG 1.1//EN" "http://www.w3.org/Graphics/SVG/1.1/DTD/svg11.dtd">
<svg version="1.1" id="Layer_1" xmlns="http://www.w3.org/2000/svg" xmlns:xlink="http://www.w3.org/1999/xlink" x="0px" y="0px"
	 width="64px" height="64px" viewBox="0 0 64 64" enable-background="new 0 0 64 64" xml:space="preserve">
<path id="recents" d="M32,56.002c-13.233,0-24-10.768-24-24c0-13.233,10.767-24,24-24c13.232,0,24,10.767,24,24
	C56,45.234,45.232,56.002,32,56.002z M32,10.002c-12.131,0-22,9.869-22,22s9.869,22,22,22s22-9.869,22-22S44.131,10.002,32,10.002z
	 M20,34.002v-2L32,32V16h2v18L20,34.002z"/>
</svg>
