<?xml version="1.0" encoding="utf-8"?>
<!-- Generator: Adobe Illustrator 15.0.0, SVG Export Plug-In . SVG Version: 6.00 Build 0)  -->
<!DOCTYPE svg PUBLIC "-//W3C//DTD SVG 1.1//EN" "http://www.w3.org/Graphics/SVG/1.1/DTD/svg11.dtd">
<svg version="1.1" id="Layer_1" xmlns="http://www.w3.org/2000/svg" xmlns:xlink="http://www.w3.org/1999/xlink" x="0px" y="0px"
	 width="64px" height="64px" viewBox="0 0 64 64" enable-background="new 0 0 64 64" xml:space="preserve">
<title>calendar</title>
<path d="M12,58h40c2.209,0,4-1.791,4-4V14c0-2.209-1.791-4-4-4h-6V7c0-0.552-0.447-1-1-1s-1,0.448-1,1v3H20V7c0-0.552-0.448-1-1-1
	s-1,0.448-1,1v3h-6c-2.209,0-4,1.791-4,4v40C8,56.209,9.791,58,12,58z M52,56H12c-1.104,0-2-0.896-2-2V24h44v30
	C54,55.104,53.104,56,52,56z M12,12h6v3c0,0.552,0.448,1,1,1s1-0.448,1-1v-3h24v3c0,0.552,0.447,1,1,1s1-0.448,1-1v-3h6
	c1.104,0,2,0.896,2,2v8H10v-8C10,12.896,10.896,12,12,12z"/>
<rect x="24" y="26" width="4" height="4"/>
<rect x="30" y="26" width="4" height="4"/>
<rect x="36" y="26" width="4" height="4"/>
<rect x="42" y="26" width="4" height="4"/>
<rect x="48" y="26" width="4" height="4"/>
<rect x="12" y="32" width="4" height="4"/>
<rect x="18" y="32" width="4" height="4"/>
<rect x="24" y="32" width="4" height="4"/>
<rect x="30" y="32" width="4" height="4"/>
<rect x="36" y="32" width="4" height="4"/>
<rect x="42" y="32" width="4" height="4"/>
<rect x="48" y="32" width="4" height="4"/>
<rect x="12" y="38" width="4" height="4"/>
<rect x="18" y="38" width="4" height="4"/>
<rect x="24" y="38" width="4" height="4"/>
<rect x="30" y="38" width="4" height="4"/>
<rect x="36" y="38" width="4" height="4"/>
<rect x="42" y="38" width="4" height="4"/>
<rect x="48" y="38" width="4" height="4"/>
<rect x="42" y="44" width="4" height="4"/>
<rect x="48" y="44" width="4" height="4"/>
<rect x="12" y="44" width="4" height="4"/>
<rect x="18" y="44" width="4" height="4"/>
<rect x="24" y="44" width="4" height="4"/>
<rect x="30" y="44" width="4" height="4"/>
<rect x="36" y="44" width="4" height="4"/>
<rect x="12" y="50" width="4" height="4"/>
<rect x="18" y="50" width="4" height="4"/>
<rect x="24" y="50" width="4" height="4"/>
<rect x="30" y="50" width="4" height="4"/>
</svg>
