<?xml version="1.0" encoding="utf-8"?>
<!-- Generator: Adobe Illustrator 15.0.0, SVG Export Plug-In . SVG Version: 6.00 Build 0)  -->
<!DOCTYPE svg PUBLIC "-//W3C//DTD SVG 1.1//EN" "http://www.w3.org/Graphics/SVG/1.1/DTD/svg11.dtd">
<svg version="1.1" id="图层_1" xmlns="http://www.w3.org/2000/svg" xmlns:xlink="http://www.w3.org/1999/xlink" x="0px" y="0px"
	 width="24px" height="24px" viewBox="0 0 24 24" enable-background="new 0 0 24 24" xml:space="preserve">
<path d="M23.854,23.146l-9.025-9.026C16.163,12.618,17,10.663,17,8.5C17,3.813,13.188,0,8.5,0C3.813,0,0,3.813,0,8.5
	C0,13.188,3.813,17,8.5,17c2.163,0,4.118-0.837,5.62-2.173l9.026,9.026C23.244,23.951,23.372,24,23.5,24s0.256-0.049,0.354-0.146
	C24.049,23.658,24.049,23.342,23.854,23.146z M1,8.5C1,4.364,4.364,1,8.5,1C12.637,1,16,4.364,16,8.5S12.637,16,8.5,16
	C4.364,16,1,12.636,1,8.5z"/>
</svg>
