<?xml version="1.0" encoding="utf-8"?>
<!-- Generator: Adobe Illustrator 15.0.0, SVG Export Plug-In . SVG Version: 6.00 Build 0)  -->
<!DOCTYPE svg PUBLIC "-//W3C//DTD SVG 1.1//EN" "http://www.w3.org/Graphics/SVG/1.1/DTD/svg11.dtd">
<svg version="1.1" id="Layer_1" xmlns="http://www.w3.org/2000/svg" xmlns:xlink="http://www.w3.org/1999/xlink" x="0px" y="0px"
	 width="64px" height="64px" viewBox="0 0 64 64" enable-background="new 0 0 64 64" xml:space="preserve">
<title>sun_cloud</title>
<path d="M50,32h-0.91c-2.058-5.438-7.275-9.026-13.09-9c-0.478-0.002-0.955,0.021-1.43,0.07c-3.265-6.394-11.095-8.932-17.49-5.667
	c-6.395,3.265-8.932,11.095-5.667,17.489c1.438,2.817,3.855,5.014,6.796,6.178c-3.275,3.738-2.899,9.425,0.84,12.699
	c1.646,1.442,3.761,2.235,5.95,2.23h25c6.627,0,12-5.373,12-12S56.627,32,50,32z M12,29c0.003-6.075,4.93-10.998,11.005-10.995
	c3.909,0.002,7.524,2.079,9.495,5.455C26.324,25.055,22.007,30.622,22,37c0.001,0.494,0.028,0.988,0.08,1.48
	c-0.758,0.259-1.478,0.619-2.14,1.069C15.23,38.207,11.987,33.897,12,29z M50,54H25c-3.866,0.007-7.006-3.121-7.013-6.987
	c-0.006-3.263,2.244-6.098,5.423-6.833c0.533-0.119,0.872-0.645,0.76-1.18c-0.11-0.661-0.167-1.33-0.17-2
	c-0.012-6.627,5.352-12.009,11.979-12.021c5.265-0.009,9.92,3.413,11.481,8.44c0.153,0.492,0.655,0.786,1.16,0.68
	c0.456-0.068,0.918-0.102,1.38-0.1c5.523,0,10,4.477,10,10S55.523,54,50,54z"/>
<path d="M8,29c0-0.552-0.448-1-1-1H3c-0.552,0-1,0.448-1,1s0.448,1,1,1h4C7.552,30,8,29.552,8,29z"/>
<path d="M22,9v4c0,0.552,0.448,1,1,1s1-0.448,1-1V9c0-0.552-0.448-1-1-1S22,8.448,22,9z"/>
<path d="M8.29,14.29c-0.388,0.39-0.388,1.02,0,1.41l2,2c0.187,0.19,0.443,0.299,0.71,0.3c0.266,0.001,0.521-0.103,0.71-0.29
	c0.388-0.39,0.388-1.02,0-1.41l-2-2c-0.386-0.395-1.019-0.402-1.414-0.016C8.294,14.286,8.292,14.288,8.29,14.29z"/>
<path d="M36.29,14.29l-2,2c-0.392,0.389-0.396,1.022-0.006,1.414C34.473,17.895,34.731,18.001,35,18
	c0.266,0.001,0.521-0.103,0.71-0.29l2-2c0.392-0.392,0.392-1.028,0-1.42S36.682,13.898,36.29,14.29z"/>
<path d="M8.29,43.71c0.389,0.392,1.022,0.395,1.414,0.006c0.002-0.002,0.004-0.004,0.006-0.006l2-2
	c0.359-0.419,0.311-1.051-0.109-1.41c-0.375-0.32-0.927-0.32-1.301,0l-2,2C7.91,42.688,7.905,43.317,8.29,43.71z"/>
</svg>
