<?xml version="1.0" standalone="no"?><!DOCTYPE svg PUBLIC "-//W3C//DTD SVG 1.1//EN" "http://www.w3.org/Graphics/SVG/1.1/DTD/svg11.dtd"><svg xmlns:xlink="http://www.w3.org/1999/xlink" xmlns="http://www.w3.org/2000/svg" version="1.1" width="200" height="200" viewBox="0 0 200 200"><defs><style type="text/css"><![CDATA[
@font-face {
  font-family: "ifont";
  src: url("//at.alicdn.com/t/font_1442373896_4754455.eot?#iefix") format("embedded-opentype"), url("//at.alicdn.com/t/font_1442373896_4754455.woff") format("woff"), url("//at.alicdn.com/t/font_1442373896_4754455.ttf") format("truetype"), url("//at.alicdn.com/t/font_1442373896_4754455.svg#ifont") format("svg");
}

]]></style></defs><g class="transform-group"><g transform="scale(0.1953125, 0.1953125)"><path d="M190.261174 752.967572q17.051709-16.154251 40.385627-16.154251t40.385627 16.154251q17.051709 17.051709 17.051709 40.385627t-17.051709 40.385627l-40.385627 40.385627q-17.051709 17.051709-40.385627 17.051709t-40.385627-17.051709q-16.154251-17.051709-16.154251-40.385627t16.154251-40.385627zM149.875548 230.646801q-16.154251-17.051709-16.154251-40.385627t16.154251-40.385627q17.051709-17.051709 40.385627-17.051709t40.385627 17.051709l40.385627 40.385627q17.051709 17.051709 17.051709 40.385627t-17.051709 39.488168q-17.051709 17.051709-40.385627 17.051709t-40.385627-17.051709zM834.636284 270.134969q-17.051709 17.051709-40.385627 17.051709t-40.385627-17.051709q-17.051709-16.154251-17.051709-39.488168t17.051709-40.385627l40.385627-40.385627q16.154251-17.051709 39.936897-17.051709t39.936897 17.051709q17.051709 17.051709 17.051709 40.385627t-17.051709 40.385627zM512.448729 170.51709q-23.333918 0-40.385627-16.60298t-17.051709-39.936897l0-57.437336q0-23.333918 17.051709-39.936897t40.385627-16.60298 39.936897 16.60298 16.60298 39.936897l0 57.437336q0 23.333918-16.60298 39.936897t-39.936897 16.60298zM170.51709 511.551271q0 23.333918-16.60298 40.385627t-39.936897 17.051709l-56.539877 0q-23.333918 0-40.385627-17.051709t-17.051709-40.385627 17.051709-39.936897 40.385627-16.60298l56.539877 0q23.333918 0 39.936897 16.60298t16.60298 39.936897zM874.124452 793.353199q17.051709 17.051709 17.051709 40.385627t-17.051709 40.385627q-16.154251 17.051709-39.936897 17.051709t-39.936897-17.051709l-40.385627-40.385627q-17.051709-17.051709-17.051709-40.385627t17.051709-40.385627q17.051709-16.154251 40.385627-16.154251t40.385627 16.154251zM512.448729 228.851884q58.334794 0 109.93865 22.436459t90.194566 60.57844 61.027169 89.745837 22.436459 109.93865q0 59.232252-22.436459 110.836109t-61.027169 89.745837-90.194566 60.57844-109.93865 22.436459q-59.232252 0-110.836109-22.436459t-89.745837-60.57844-60.57844-89.745837-22.436459-110.836109q0-58.334794 22.436459-109.93865t60.57844-89.745837 89.745837-60.57844 110.836109-22.436459zM512.448729 685.658195q35.898335 0 67.758107-13.910605t55.19369-37.244522 37.244522-55.19369 13.910605-67.758107-13.910605-67.309378-37.244522-55.19369-55.19369-37.244522-67.758107-13.461876-67.758107 13.461876-55.19369 37.244522-37.244522 55.19369-13.910605 67.309378 13.910605 67.758107 37.244522 55.19369 55.19369 37.244522 67.758107 13.910605zM512.448729 853.48291q23.333918 0 39.936897 16.60298t16.60298 39.936897l0 57.437336q0 23.333918-16.60298 39.936897t-39.936897 16.60298-40.385627-16.60298-17.051709-39.936897l0-57.437336q0-23.333918 17.051709-39.936897t40.385627-16.60298zM967.460123 455.011394q23.333918 0 39.936897 16.60298t16.60298 39.936897-16.60298 40.385627-39.936897 17.051709l-56.539877 0q-23.333918 0-40.385627-17.051709t-17.051709-40.385627 17.051709-39.936897 40.385627-16.60298l56.539877 0z" fill="#272636"></path></g></g></svg>