<?xml version="1.0" encoding="utf-8"?>
<!-- Generator: Adobe Illustrator 15.0.0, SVG Export Plug-In . SVG Version: 6.00 Build 0)  -->
<!DOCTYPE svg PUBLIC "-//W3C//DTD SVG 1.1//EN" "http://www.w3.org/Graphics/SVG/1.1/DTD/svg11.dtd">
<svg version="1.1" id="Layer_1" xmlns="http://www.w3.org/2000/svg" xmlns:xlink="http://www.w3.org/1999/xlink" x="0px" y="0px"
	 width="64px" height="64px" viewBox="0 0 64 64" enable-background="new 0 0 64 64" xml:space="preserve">
<title>checkbox</title>
<path fill="#FFFFFF" d="M4,55c0,0.553,0.448,1,1,1h44c0.553,0,1-0.447,1-1V28c0-0.552-0.447-1-1-1s-1,0.448-1,1v26H6V12h42v5
	c0,0.552,0.447,1,1,1s1-0.448,1-1v-6c0-0.552-0.447-1-1-1H5c-0.552,0-1,0.448-1,1V55z"/>
<path fill="#FFFFFF" d="M59.71,12.29c-0.39-0.388-1.021-0.388-1.41,0L27,43.59l-9.29-9.29c-0.419-0.358-1.051-0.31-1.41,0.109
	c-0.32,0.374-0.32,0.927,0,1.301l10,10c0.187,0.185,0.438,0.289,0.7,0.29c0.266,0.002,0.521-0.103,0.71-0.29l32-32
	c0.392-0.389,0.395-1.022,0.006-1.414C59.714,12.294,59.712,12.292,59.71,12.29z"/>
</svg>
