<?xml version="1.0" encoding="utf-8"?>
<!-- Generator: Adobe Illustrator 15.0.0, SVG Export Plug-In . SVG Version: 6.00 Build 0)  -->
<!DOCTYPE svg PUBLIC "-//W3C//DTD SVG 1.1//EN" "http://www.w3.org/Graphics/SVG/1.1/DTD/svg11.dtd">
<svg version="1.1" id="图层_1" xmlns="http://www.w3.org/2000/svg" xmlns:xlink="http://www.w3.org/1999/xlink" x="0px" y="0px"
	 width="24px" height="24px" viewBox="0 0 24 24" enable-background="new 0 0 24 24" xml:space="preserve">
<g>
	<path d="M23.908,11.939c-0.065-0.082-1.614-2.021-4.082-3.808c-0.225-0.16-0.536-0.112-0.698,0.112
		c-0.162,0.224-0.112,0.536,0.112,0.698c1.783,1.291,3.09,2.697,3.621,3.308c-1.11,1.271-5.598,6-10.846,6
		c-0.928,0-1.889-0.149-2.856-0.442c-0.266-0.082-0.543,0.068-0.624,0.332c-0.08,0.266,0.069,0.545,0.333,0.625
		c1.062,0.321,2.121,0.485,3.147,0.485c6.519,0,11.676-6.416,11.892-6.688C24.052,12.379,24.052,12.121,23.908,11.939z
		 M4.483,16.451c0.155,0,0.308-0.071,0.405-0.207C5.05,16.021,5,15.708,4.777,15.546C3,14.259,1.7,12.857,1.17,12.25
		c1.11-1.27,5.598-6,10.846-6c0.775,0,1.576,0.104,2.38,0.309c0.265,0.066,0.539-0.094,0.607-0.361
		c0.068-0.267-0.093-0.539-0.361-0.607c-0.886-0.226-1.77-0.34-2.626-0.34c-6.519,0-11.676,6.416-11.892,6.689
		c-0.144,0.182-0.144,0.439,0,0.621c0.065,0.082,1.608,2.015,4.066,3.797C4.279,16.42,4.381,16.451,4.483,16.451z M7.516,12.25
		c0,0.275,0.224,0.5,0.5,0.5s0.5-0.225,0.5-0.5c0-1.93,1.57-3.5,3.5-3.5c0.276,0,0.5-0.224,0.5-0.5s-0.224-0.5-0.5-0.5
		C9.534,7.75,7.516,9.769,7.516,12.25z M15.516,12.25c0,1.93-1.57,3.5-3.5,3.5c-0.276,0-0.5,0.225-0.5,0.5s0.224,0.5,0.5,0.5
		c2.481,0,4.5-2.02,4.5-4.5c0-0.276-0.224-0.5-0.5-0.5C15.74,11.75,15.516,11.974,15.516,12.25z M22.119,2.146
		c-0.195-0.195-0.512-0.195-0.707,0l-19.5,19.5c-0.195,0.194-0.195,0.512,0,0.707C2.01,22.451,2.138,22.5,2.266,22.5
		s0.256-0.049,0.354-0.146l19.5-19.5C22.314,2.658,22.314,2.342,22.119,2.146z"/>
</g>
</svg>
