<?xml version="1.0" standalone="no"?>
<!DOCTYPE svg PUBLIC "-//W3C//DTD SVG 1.1//EN" "http://www.w3.org/Graphics/SVG/1.1/DTD/svg11.dtd" >
<!--
2013-9-30: Created.
-->
<svg>
<metadata>
Created by iconfont
</metadata>
<defs>

<font id="iconfont" horiz-adv-x="1024" >
  <font-face
    font-family="iconfont"
    font-weight="500"
    font-stretch="normal"
    units-per-em="1024"
    ascent="896"
    descent="-128"
  />
    <missing-glyph />
    
    <glyph glyph-name="x" unicode="x" horiz-adv-x="1001"
d="M281 543q-27 -1 -53 -1h-83q-18 0 -36.5 -6t-32.5 -18.5t-23 -32t-9 -45.5v-76h912v41q0 16 -0.5 30t-0.5 18q0 13 -5 29t-17 29.5t-31.5 22.5t-49.5 9h-133v-97h-438v97zM955 310v-52q0 -23 0.5 -52t0.5 -58t-10.5 -47.5t-26 -30t-33 -16t-31.5 -4.5q-14 -1 -29.5 -0.5
t-29.5 0.5h-32l-45 128h-439l-44 -128h-29h-34q-20 0 -45 1q-25 0 -41 9.5t-25.5 23t-13.5 29.5t-4 30v167h911zM163 247q-12 0 -21 -8.5t-9 -21.5t9 -21.5t21 -8.5q13 0 22 8.5t9 21.5t-9 21.5t-22 8.5zM316 123q-8 -26 -14 -48q-5 -19 -10.5 -37t-7.5 -25t-3 -15t1 -14.5
t9.5 -10.5t21.5 -4h37h67h81h80h64h36q23 0 34 12t2 38q-5 13 -9.5 30.5t-9.5 34.5q-5 19 -11 39h-368zM336 498v228q0 11 2.5 23t10 21.5t20.5 15.5t34 6h188q31 0 51.5 -14.5t20.5 -52.5v-227h-327z" />
    

    
    <glyph glyph-name="dingwei" unicode="&#58882;" d="M513 384m-448 0a448 448 0 1 1 896 0 448 448 0 1 1-896 0ZM666.3 422.3c0-84.7-115-230-153.3-230s-153.3 145.3-153.3 230S428.3 575.7 513 575.7 666.3 507 666.3 422.3zM513 458.7m-56 0a56 56 0 1 1 112 0 56 56 0 1 1-112 0Z"  horiz-adv-x="1024" />

    
    <glyph glyph-name="diannao" unicode="&#58888;" d="M511.3 384.2m-448 0a448 448 0 1 1 896 0 448 448 0 1 1-896 0ZM492.7 294H530v-62.2h-37.3zM586 219.29999999999995c0-10.3-8.4-18.7-18.7-18.7h-112c-10.3 0-18.7 8.4-18.7 18.7 0 10.3 8.4 18.7 18.7 18.7h112c10.3 0 18.7-8.4 18.7-18.7zM676.7 272.20000000000005H346c-22.1 0-40 17.9-40 40V530.9c0 22.1 17.9 40 40 40h330.7c22.1 0 40-17.9 40-40v-218.7c0-22.1-17.9-40-40-40z"  horiz-adv-x="1024" />

    
    <glyph glyph-name="qianbao" unicode="&#58889;" d="M512 383m-448 0a448 448 0 1 1 896 0 448 448 0 1 1-896 0ZM560.2 523l-7.1 21.2c-6.6 19.5-27.7 30.1-47.3 23.5L372.6 523h187.6zM634.9 513.7l-7.1 21.2c-6.6 19.5-27.7 30.1-47.3 23.5l-133.2-44.7h187.6zM677.3 196.3H346.7c-22.1 0-40 17.9-40 40v256c0 22.1 17.9 40 40 40h330.7c22.1 0 40-17.9 40-40v-256c-0.1-22.1-18-40-40.1-40zM661.3 327c-20.6 0-37.3 16.7-37.3 37.3 0 20.6 16.7 37.3 37.3 37.3h56V327h-56zM661.3 364.3m-18.7 0a18.7 18.7 0 1 1 37.4 0 18.7 18.7 0 1 1-37.4 0Z"  horiz-adv-x="1024" />

    
    <glyph glyph-name="geren" unicode="&#58890;" d="M511.3 382.8m-448 0a448 448 0 1 1 896 0 448 448 0 1 1-896 0ZM512 511.4m-65 0a65 65 0 1 1 130 0 65 65 0 1 1-130 0ZM583.3 214.8H436.7c-20.6 0-37.3 16.7-37.3 37.3v168c0 2.1 0.2 4.1 0.5 6.1 3.7 22.9 29 35.2 49.8 24.8l48.2-24.1c8.5-4.3 18.5-4.3 27.1 0l48.2 24.1c20.7 10.4 46-2 49.8-24.8 0.3-2 0.5-4 0.5-6.1v-165.3c-0.2-22.1-18.1-40-40.2-40z"  horiz-adv-x="1024" />

    
    <glyph glyph-name="qiaquan" unicode="&#58891;" d="M511 383m-448 0a448 448 0 1 1 896 0 448 448 0 1 1-896 0ZM655.6 361.3c0 33 26.7 59.8 59.7 60v68c0 22.1-17.9 40-40 40H344.7c-22.1 0-40-17.9-40-40v-68c33.1-0.1 59.8-26.9 59.8-60s-26.8-59.9-59.8-60v-68c0-22.1 17.9-40 40-40h330.7c22.1 0 40 17.9 40 40v68c-33.1 0.1-59.8 26.9-59.8 60zM568.1 397.9H456.5c-4.4 0-8-3.6-8-8s3.6-8 8-8h111.6c4.4 0 8 3.6 8 8s-3.6 8-8 8zM568.1 340.7H456.5c-4.4 0-8-3.6-8-8s3.6-8 8-8h111.6c4.4 0 8 3.6 8 8s-3.6 8-8 8z"  horiz-adv-x="1024" />

    
    <glyph glyph-name="jiaoliu" unicode="&#58892;" d="M512.3 383.7m-448 0a448 448 0 1 1 896 0 448 448 0 1 1-896 0ZM677.6 553.7H347c-22.1 0-40-17.9-40-40v-196.3c0-22.1 17.9-40 40-40h94.9l35.2-45c19.5-24.9 51.2-25 70.8-0.3l35.8 45.2h94c22.1 0 40 17.9 40 40V513.7c-0.1 22.1-18 40-40.1 40zM439.2 409.2m-20 0a20 20 0 1 1 40 0 20 20 0 1 1-40 0ZM512.6 409.2m-20 0a20 20 0 1 1 40 0 20 20 0 1 1-40 0ZM585.9 409.2m-20 0a20 20 0 1 1 40 0 20 20 0 1 1-40 0Z"  horiz-adv-x="1024" />

    
    <glyph glyph-name="shezhi" unicode="&#58893;" d="M511.3 390m-448 0a448 448 0 1 1 896 0 448 448 0 1 1-896 0ZM692.1 404l-72.8 126c-7.1 12.4-20.3 20-34.6 20H439.2c-14.3 0-27.5-7.6-34.6-20l-72.8-126c-7.1-12.4-7.1-27.6 0-39.9l72.8-126c7.1-12.4 20.3-20 34.6-20h145.5c14.3 0 27.5 7.6 34.6 20l72.8 126c7.1 12.3 7.1 27.5 0 39.9z m-179.5-84.7c-35.5 0-64.3 28.8-64.3 64.3s28.8 64.3 64.3 64.3 64.3-28.8 64.3-64.3c-0.1-35.5-28.8-64.3-64.3-64.3zM512 384m-25 0a25 25 0 1 1 50 0 25 25 0 1 1-50 0Z"  horiz-adv-x="1024" />

    
    <glyph glyph-name="dianzan" unicode="&#58894;" d="M512 384m-448 0a448 448 0 1 1 896 0 448 448 0 1 1-896 0ZM370.8 192.3c-25.4 0-46.1 20.6-46.1 46.1V434.7c0 25.4 20.6 46.1 46.1 46.1 25.4 0 46.1-20.6 46.1-46.1v-196.4c-0.1-25.4-20.7-46-46.1-46zM659.3 480.7h-77.4c0.7 2 1.4 4.2 2 6.5 16.5 65.9-4.1 79.7-4.1 79.7s-41.9 32-50.1-26.3c-6.4-45.8-38.2-57.1-51.6-59.9h-0.9c-22.1 0-40-16.2-40-36.1v-216.2c0-20 17.9-36.2 40-36.2h134.6c19.1 0 35.6 12.2 39.3 29.2l47.4 216.2c4.9 22.3-14 43.1-39.2 43.1z"  horiz-adv-x="1024" />

    
    <glyph glyph-name="sousuo" unicode="&#58895;" d="M512 384m-448 0a448 448 0 1 1 896 0 448 448 0 1 1-896 0ZM478.1 417.9m-158 0a158 158 0 1 1 316 0 158 158 0 1 1-316 0ZM697.5 198.5c-8.8-8.8-22.9-8.8-31.7 0L531.7 332.6c-8.8 8.8-8.8 22.9 0 31.7s22.9 8.8 31.7 0l134.1-134.1c8.8-8.8 8.8-22.9 0-31.7zM478.1 417.9m-111.7 0a111.7 111.7 0 1 1 223.4 0 111.7 111.7 0 1 1-223.4 0Z"  horiz-adv-x="1024" />

    
    <glyph glyph-name="maikefeng" unicode="&#58896;" d="M513 384m-448 0a448 448 0 1 1 896 0 448 448 0 1 1-896 0ZM619.7 458.3c-10.3 0-18.7-8.4-18.7-18.7v-39.9c0-48.5-39.5-88-88-88s-88 39.5-88 88v39.9c0 10.3-8.4 18.7-18.7 18.7s-18.7-8.4-18.7-18.7v-39.9c0-62.8 46.4-114.9 106.7-123.9v-38.1H457c-10.3 0-18.7-8.4-18.7-18.7 0-10.3 8.4-18.7 18.7-18.7h112c10.3 0 18.7 8.4 18.7 18.7 0 10.3-8.4 18.7-18.7 18.7h-37.3v38.1c60.3 9 106.7 61.2 106.7 123.9v39.9c-0.1 10.4-8.4 18.7-18.7 18.7zM513 328c-41.1 0-74.7 33.6-74.7 74.7v98.4c0 41.1 33.6 74.7 74.7 74.7s74.7-33.6 74.7-74.7v-98.4c0-41.1-33.6-74.7-74.7-74.7z"  horiz-adv-x="1024" />

    
    <glyph glyph-name="shuqian" unicode="&#58897;" d="M511.1 382.8m-448 0a448 448 0 1 1 896 0 448 448 0 1 1-896 0ZM679.1 529.5v-293.3c0-22.1-17.9-40-40-40h-256c-22.1 0-40 17.9-40 40V529.5c0 22.1 17.9 40 40 40h256c22 0 40-18 40-40zM622.9 447.2l-17 17c-6.6 6.6-17.2 6.6-23.8 0l-17-17c-3.1-3.1-8.4-0.9-8.4 3.5V569.5h74.7v-118.7c-0.1-4.5-5.4-6.7-8.5-3.6z"  horiz-adv-x="1024" />

    
    <glyph glyph-name="shanchu" unicode="&#58898;" d="M512 383.8m-448 0a448 448 0 1 1 896 0 448 448 0 1 1-896 0ZM528.6 514.4h-37.3c-10.3 0-18.7 8.4-18.7 18.7 0 10.3 8.4 18.7 18.7 18.7h37.3c10.3 0 18.7-8.4 18.7-18.7 0-10.3-8.4-18.7-18.7-18.7zM640.6 495.8H379.3c-10.3 0-18.7 8.4-18.7 18.7 0 10.3 8.4 18.7 18.7 18.7h261.3c10.3 0 18.7-8.4 18.7-18.7 0-10.4-8.4-18.7-18.7-18.7zM600.6 215.8H419.3c-22.1 0-40 17.9-40 40V437.1c0 22.1 17.9 40 40 40h181.3c22.1 0 40-17.9 40-40v-181.3c0-22.1-17.9-40-40-40zM466.9 393.5v-111.6c0-4.4 3.6-8 8-8s8 3.6 8 8V393.5c0 4.4-3.6 8-8 8s-8-3.6-8-8zM541.5 393.5v-111.6c0-4.4 3.6-8 8-8s8 3.6 8 8V393.5c0 4.4-3.6 8-8 8s-8-3.6-8-8z"  horiz-adv-x="1024" />

    
    <glyph glyph-name="shoucang" unicode="&#58899;" d="M512 384m-448 0a448 448 0 1 1 896 0 448 448 0 1 1-896 0ZM625.1 431.3l1.2 95.6c0.2 16.4-18.5 26-31.7 16.1L518 485.9l107.1-54.6zM525.6 567l42.3-85.8c2.9-5.8 8.5-9.9 14.9-10.8l94.7-13.8c16.3-2.4 22.7-22.3 11-33.8L620 356.1c-4.7-4.6-6.8-11.1-5.7-17.5l16.2-94.3c2.8-16.2-14.2-28.5-28.7-20.9l-84.7 44.5c-5.8 3-12.7 3-18.4 0L414 223.4c-14.5-7.6-31.5 4.7-28.7 20.9l16.2 94.3c1.1 6.4-1 13-5.7 17.5l-68.5 66.8c-11.8 11.5-5.3 31.4 11 33.8l94.7 13.8c6.5 0.9 12 5 14.9 10.8l42.3 85.8c7.2 14.7 28.2 14.7 35.4-0.1z"  horiz-adv-x="1024" />

    
    <glyph glyph-name="qiandao" unicode="&#58900;" d="M511.4 383m-448 0a448 448 0 1 1 896 0 448 448 0 1 1-896 0ZM680.5 513.7h-37.3V495c0-20.6-16.7-37.3-37.3-37.3s-37.3 16.7-37.3 37.3v18.7h-112V495c0-20.6-16.7-37.3-37.3-37.3-20.6 0-37.3 16.7-37.3 37.3v18.7h-37.3c-20.6 0-37.3-16.7-37.3-37.3v-224c0-20.6 16.7-37.3 37.3-37.3h336c20.6 0 37.3 16.7 37.3 37.3v224c-0.2 20.6-16.9 37.3-37.5 37.3zM418.1 551c-10.3 0-18.7-8.4-18.7-18.7V495c0-10.3 8.4-18.7 18.7-18.7s18.7 8.4 18.7 18.7v37.3c0 10.3-8.4 18.7-18.7 18.7zM604.8 551c-10.3 0-18.7-8.4-18.7-18.7V495c0-10.3 8.4-18.7 18.7-18.7s18.7 8.4 18.7 18.7v37.3c-0.1 10.3-8.4 18.7-18.7 18.7zM503.1 306.8c-6 0-11.9 2.3-16.5 6.8l-45.2 45.2c-3.1 3.1-3.1 8.1 0 11.2 3.1 3.1 8.1 3.1 11.2 0l45.2-45.2c2.9-2.9 7.6-2.9 10.5 0l82.5 82.5c3.1 3.1 8.1 3.1 11.2 0 3.1-3.1 3.1-8.1 0-11.2l-82.5-82.5c-4.4-4.6-10.4-6.8-16.4-6.8z"  horiz-adv-x="1024" />

    
    <glyph glyph-name="fenxiang" unicode="&#58901;" d="M511.3 382.8m-448 0a448 448 0 1 1 896 0 448 448 0 1 1-896 0ZM627.1 465.1c-3.9 1.9-10-2.1-13.4-9l-86.4-175.2c-2.2-4.4-2.6-8.8-1.7-12L379.2 398.3c-5.8 5.1-12.9 6.6-15.8 3.3-2.9-3.3-0.6-10.2 5.2-15.3L515 257c5.8-5.1 12.9-6.6 15.8-3.3 2.2 2.4 1.4 6.8-1.4 11 3.9-1 9.2 2.7 12.4 9.1L628.1 449c3.4 6.9 3 14.2-1 16.1zM368.2 401.4m-37.3 0a37.3 37.3 0 1 1 74.6 0 37.3 37.3 0 1 1-74.6 0ZM610.9 476.1m-56 0a56 56 0 1 1 112 0 56 56 0 1 1-112 0ZM517.6 252.1m-56 0a56 56 0 1 1 112 0 56 56 0 1 1-112 0Z"  horiz-adv-x="1024" />

    
    <glyph glyph-name="tixing" unicode="&#58902;" d="M512.1 382.8m-448 0a448 448 0 1 1 896 0 448 448 0 1 1-896 0ZM511.6 233.4m-37.3 0a37.3 37.3 0 1 1 74.6 0 37.3 37.3 0 1 1-74.6 0ZM513.2 532.1m-37.3 0a37.3 37.3 0 1 1 74.6 0 37.3 37.3 0 1 1-74.6 0ZM663.7 282.8l-20.9 62.7v74.7c0 72.2-58.5 130.7-130.7 130.7s-130.7-58.5-130.7-130.7v-74.7l-20.9-62.7c-8.1-24.3 10-49.3 35.6-49.3h232c25.6-0.1 43.7 25 35.6 49.3z"  horiz-adv-x="1024" />

    
    <glyph glyph-name="wenjianjia" unicode="&#58903;" d="M511.3 384.2m-448 0a448 448 0 1 1 896 0 448 448 0 1 1-896 0ZM602 328.2H402c-22.1 0-40 17.9-40 40V493.5c0 22.1 17.9 40 40 40h200c22.1 0 40-17.9 40-40v-125.3c0-22.1-17.9-40-40-40zM679.4 216.2H343.3c-20.6 0-37.3 16.7-37.3 37.3V514.9c0 20.6 16.7 37.3 37.3 37.3h110.2c10 0 19.4-4.7 25.4-12.7l22.6-30.2c6.2-8.3 15.9-13.1 26.2-13.1h151.7c20.6 0 37.3-16.7 37.3-37.3v-205.4c0-20.6-16.7-37.3-37.3-37.3zM716.7 440.2H549.1c-4.4 0-8-3.6-8-8.1s3.6-8.1 8-8.1h167.6v16.2z"  horiz-adv-x="1024" />

    
    <glyph glyph-name="yinhangqia" unicode="&#58904;" d="M511.3 384.2m-448 0a448 448 0 1 1 896 0 448 448 0 1 1-896 0ZM676.7 216.2H346c-22.1 0-40 17.9-40 40v256c0 22.1 17.9 40 40 40h330.7c22.1 0 40-17.9 40-40v-256c0-22.1-17.9-40-40-40zM476.1 383.5H364.5c-4.4 0-8-3.6-8-8s3.6-8 8-8h111.6c4.4 0 8 3.6 8 8s-3.6 8-8 8zM508.4 326.3H366.6c-5.6 0-10.2-3.6-10.2-8s4.6-8 10.2-8h141.7c5.6 0 10.2 3.6 10.2 8s-4.5 8-10.1 8zM306 471.2h410.7v-37.3H306z"  horiz-adv-x="1024" />

    
    <glyph glyph-name="wenjian" unicode="&#58905;" d="M510.6 384m-448 0a448 448 0 1 1 896 0 448 448 0 1 1-896 0ZM678.6 530.7v-293.3c0-22.1-17.9-40-40-40h-256c-22.1 0-40 17.9-40 40V530.7c0 22.1 17.9 40 40 40h256c22 0 40-17.9 40-40zM419.7 461.2h111.6c4.4 0 8 3.6 8 8.1 0 4.4-3.6 8.1-8 8.1H419.7c-4.4 0-8-3.6-8-8.1s3.6-8.1 8-8.1zM563.6 419.6H421.8c-5.6 0-10.2-3.6-10.2-8.1 0-4.4 4.6-8.1 10.2-8.1h141.7c5.6 0 10.2 3.6 10.2 8.1 0 4.4-4.5 8.1-10.1 8.1z"  horiz-adv-x="1024" />

    
    <glyph glyph-name="youjian" unicode="&#58906;" d="M512 384m-448 0a448 448 0 1 1 896 0 448 448 0 1 1-896 0ZM677.3 216H346.7c-22.1 0-40 17.9-40 40V512c0 22.1 17.9 40 40 40h330.7c22.1 0 40-17.9 40-40v-256c-0.1-22.1-18-40-40.1-40zM520.5 398.3c-5.4 0-10.8 1.2-15.8 3.7l-136.2 68.1c-4 2-5.6 6.8-3.6 10.7 2 4 6.8 5.6 10.7 3.6l136.2-68.1c5.8-2.9 12.7-2.7 18.3 0.5L648 484.3c3.9 2.2 8.7 0.9 10.9-3 2.2-3.8 0.9-8.7-3-10.9L538 403c-5.4-3.1-11.5-4.7-17.5-4.7z"  horiz-adv-x="1024" />

    


  </font>
</defs>
</svg>
